<svg xmlns="http://www.w3.org/2000/svg" viewBox="0 0 360 260">
  <g fill="none" stroke="#6B6F76" stroke-width="7" stroke-linecap="round" stroke-linejoin="round">
    <path d="M92 34c34-12 78-12 108 4 4 52-8 130-30 188-24 10-58 10-82-2 14-58 18-132 4-190Z"/>
    <path d="M268 34c-34-12-78-12-108 4-4 52 8 130 30 188 24 10 58 10 82-2-14-58-18-132-4-190Z"/>
  </g>
  <g fill="#F5F6F7">
    <path d="M100 42c26-8 62-8 88 2 1 48-10 120-30 170-17 6-42 6-58-1 12-52 15-116 0-171Z"/>
    <path d="M260 42c-26-8-62-8-88 2-1 48 10 120 30 170 17 6 42 6 58-1-12-52-15-116 0-171Z"/>
  </g>
  <g fill="#E66A1A">
    <circle id="avonex_right_thigh_1" cx="145" cy="92" r="23"/>
    <circle id="avonex_left_thigh_2" cx="215" cy="92" r="23"/>
  </g>
  <g fill="#FFFFFF" font-family="Arial, sans-serif" font-size="20" font-weight="700" text-anchor="middle" dominant-baseline="central">
    <text x="145" y="92">1</text>
    <text x="215" y="92">2</text>
  </g>
</svg>
