<svg xmlns="http://www.w3.org/2000/svg" viewBox="0 0 260 340" role="img" aria-label="Coxa direita">
  <rect width="260" height="340" rx="28" fill="#FFF8F1"/>
  <path d="M77 26c42-20 96-18 133 6-5 88-20 192-54 282-25 11-62 10-89-3 19-86 23-190 10-285Z" fill="#F4E8DE" stroke="#806E63" stroke-width="6" stroke-linejoin="round"/>
  <path d="M149 55c-4 88-17 170-39 239" fill="none" stroke="#DDCABC" stroke-width="5" stroke-linecap="round"/>
  <path d="M99 132c29-23 69-22 95 0-5 36-13 69-24 99-24 10-54 10-76-2 4-30 6-62 5-97Z" fill="#DF6725" opacity=".88"/>
  <path d="M92 309c23 12 56 13 78 2" fill="none" stroke="#6F806C" stroke-width="5" stroke-linecap="round"/>
</svg>
