<svg xmlns="http://www.w3.org/2000/svg" viewBox="0 0 420 112" role="img" aria-label="EMControle">
  <rect width="420" height="112" rx="24" fill="#FFFFFF"/>
  <g transform="translate(20 16)">
    <rect width="80" height="80" rx="22" fill="#FFF5EC"/>
    <path d="M40 15c10 0 17 7 17 16 0 13-9 21-17 30-8-9-17-17-17-30 0-9 7-16 17-16Z" fill="#DF6725"/>
    <path d="M40 15c-10 12-11 24-4 37 1 3 3 6 4 9 1-3 3-6 4-9 7-13 6-25-4-37Z" fill="#F6A25C"/>
    <path d="M28 30c0-8 5-14 12-15 7 1 12 7 12 15 0 9-6 16-12 23-6-7-12-14-12-23Z" fill="none" stroke="#9E441D" stroke-width="5" stroke-linecap="round" stroke-linejoin="round"/>
    <path d="M23 64c10-8 24-8 34 0" fill="none" stroke="#6F806C" stroke-width="5" stroke-linecap="round"/>
  </g>
  <text x="122" y="57" fill="#29231F" font-family="Arial, Helvetica, sans-serif" font-size="36" font-weight="800">EMControle</text>
  <text x="124" y="80" fill="#70665F" font-family="Arial, Helvetica, sans-serif" font-size="15">organização local para Esclerose Múltipla</text>
</svg>
